<mxfile host="app.diagrams.net" agent="Mozilla/5.0 (X11; Linux x86_64) AppleWebKit/537.36 (KHTML, like Gecko) Chrome/134.0.0.0 Safari/537.36" version="26.1.3">
  <diagram name="Page-1" id="Wd95dtvA1wmNzo6epmT0">
    <mxGraphModel dx="1687" dy="898" grid="1" gridSize="10" guides="1" tooltips="1" connect="1" arrows="1" fold="1" page="1" pageScale="1" pageWidth="850" pageHeight="1100" math="0" shadow="0">
      <root>
        <mxCell id="0" />
        <mxCell id="1" parent="0" />
        <mxCell id="qMuitNjW0mg07pq-6-ZJ-3" value="" style="edgeStyle=orthogonalEdgeStyle;rounded=0;orthogonalLoop=1;jettySize=auto;html=1;" edge="1" parent="1" source="qMuitNjW0mg07pq-6-ZJ-1" target="qMuitNjW0mg07pq-6-ZJ-2">
          <mxGeometry relative="1" as="geometry" />
        </mxCell>
        <mxCell id="qMuitNjW0mg07pq-6-ZJ-1" value="Start" style="ellipse;whiteSpace=wrap;html=1;aspect=fixed;" vertex="1" parent="1">
          <mxGeometry x="500" y="80" width="80" height="80" as="geometry" />
        </mxCell>
        <mxCell id="qMuitNjW0mg07pq-6-ZJ-5" value="" style="edgeStyle=orthogonalEdgeStyle;rounded=0;orthogonalLoop=1;jettySize=auto;html=1;" edge="1" parent="1" source="qMuitNjW0mg07pq-6-ZJ-2" target="qMuitNjW0mg07pq-6-ZJ-4">
          <mxGeometry relative="1" as="geometry" />
        </mxCell>
        <mxCell id="qMuitNjW0mg07pq-6-ZJ-2" value="Initiating NFT purchase" style="whiteSpace=wrap;html=1;" vertex="1" parent="1">
          <mxGeometry x="480" y="190" width="120" height="60" as="geometry" />
        </mxCell>
        <mxCell id="qMuitNjW0mg07pq-6-ZJ-7" value="" style="edgeStyle=orthogonalEdgeStyle;rounded=0;orthogonalLoop=1;jettySize=auto;html=1;" edge="1" parent="1" source="qMuitNjW0mg07pq-6-ZJ-4" target="qMuitNjW0mg07pq-6-ZJ-6">
          <mxGeometry relative="1" as="geometry" />
        </mxCell>
        <mxCell id="qMuitNjW0mg07pq-6-ZJ-36" value="No" style="edgeLabel;html=1;align=center;verticalAlign=middle;resizable=0;points=[];" vertex="1" connectable="0" parent="qMuitNjW0mg07pq-6-ZJ-7">
          <mxGeometry x="-0.2778" y="2" relative="1" as="geometry">
            <mxPoint as="offset" />
          </mxGeometry>
        </mxCell>
        <mxCell id="qMuitNjW0mg07pq-6-ZJ-11" value="" style="edgeStyle=orthogonalEdgeStyle;rounded=0;orthogonalLoop=1;jettySize=auto;html=1;" edge="1" parent="1" source="qMuitNjW0mg07pq-6-ZJ-4" target="qMuitNjW0mg07pq-6-ZJ-10">
          <mxGeometry relative="1" as="geometry" />
        </mxCell>
        <mxCell id="qMuitNjW0mg07pq-6-ZJ-37" value="Yes" style="edgeLabel;html=1;align=center;verticalAlign=middle;resizable=0;points=[];" vertex="1" connectable="0" parent="qMuitNjW0mg07pq-6-ZJ-11">
          <mxGeometry x="-0.0458" y="-3" relative="1" as="geometry">
            <mxPoint as="offset" />
          </mxGeometry>
        </mxCell>
        <mxCell id="qMuitNjW0mg07pq-6-ZJ-4" value="Is the NFT for sale?" style="rhombus;whiteSpace=wrap;html=1;" vertex="1" parent="1">
          <mxGeometry x="500" y="280" width="80" height="80" as="geometry" />
        </mxCell>
        <mxCell id="qMuitNjW0mg07pq-6-ZJ-9" value="" style="edgeStyle=orthogonalEdgeStyle;rounded=0;orthogonalLoop=1;jettySize=auto;html=1;" edge="1" parent="1" source="qMuitNjW0mg07pq-6-ZJ-6" target="qMuitNjW0mg07pq-6-ZJ-8">
          <mxGeometry relative="1" as="geometry" />
        </mxCell>
        <mxCell id="qMuitNjW0mg07pq-6-ZJ-6" value="Error: NFT not for sale" style="whiteSpace=wrap;html=1;" vertex="1" parent="1">
          <mxGeometry x="285" y="290" width="120" height="60" as="geometry" />
        </mxCell>
        <mxCell id="qMuitNjW0mg07pq-6-ZJ-8" value="End" style="ellipse;whiteSpace=wrap;html=1;" vertex="1" parent="1">
          <mxGeometry x="140" y="280" width="80" height="80" as="geometry" />
        </mxCell>
        <mxCell id="qMuitNjW0mg07pq-6-ZJ-13" value="" style="edgeStyle=orthogonalEdgeStyle;rounded=0;orthogonalLoop=1;jettySize=auto;html=1;" edge="1" parent="1" source="qMuitNjW0mg07pq-6-ZJ-10" target="qMuitNjW0mg07pq-6-ZJ-12">
          <mxGeometry relative="1" as="geometry" />
        </mxCell>
        <mxCell id="qMuitNjW0mg07pq-6-ZJ-38" value="No" style="edgeLabel;html=1;align=center;verticalAlign=middle;resizable=0;points=[];" vertex="1" connectable="0" parent="qMuitNjW0mg07pq-6-ZJ-13">
          <mxGeometry x="-0.0556" y="4" relative="1" as="geometry">
            <mxPoint as="offset" />
          </mxGeometry>
        </mxCell>
        <mxCell id="qMuitNjW0mg07pq-6-ZJ-17" value="" style="edgeStyle=orthogonalEdgeStyle;rounded=0;orthogonalLoop=1;jettySize=auto;html=1;" edge="1" parent="1" source="qMuitNjW0mg07pq-6-ZJ-10" target="qMuitNjW0mg07pq-6-ZJ-16">
          <mxGeometry relative="1" as="geometry" />
        </mxCell>
        <mxCell id="qMuitNjW0mg07pq-6-ZJ-39" value="Yes" style="edgeLabel;html=1;align=center;verticalAlign=middle;resizable=0;points=[];" vertex="1" connectable="0" parent="qMuitNjW0mg07pq-6-ZJ-17">
          <mxGeometry x="-0.0667" y="2" relative="1" as="geometry">
            <mxPoint as="offset" />
          </mxGeometry>
        </mxCell>
        <mxCell id="qMuitNjW0mg07pq-6-ZJ-10" value="Has enough funds been provided by user?" style="rhombus;whiteSpace=wrap;html=1;" vertex="1" parent="1">
          <mxGeometry x="500" y="420" width="80" height="80" as="geometry" />
        </mxCell>
        <mxCell id="qMuitNjW0mg07pq-6-ZJ-15" value="" style="edgeStyle=orthogonalEdgeStyle;rounded=0;orthogonalLoop=1;jettySize=auto;html=1;" edge="1" parent="1" source="qMuitNjW0mg07pq-6-ZJ-12" target="qMuitNjW0mg07pq-6-ZJ-14">
          <mxGeometry relative="1" as="geometry" />
        </mxCell>
        <mxCell id="qMuitNjW0mg07pq-6-ZJ-12" value="Error: Insufficient funds" style="whiteSpace=wrap;html=1;" vertex="1" parent="1">
          <mxGeometry x="285" y="430" width="120" height="60" as="geometry" />
        </mxCell>
        <mxCell id="qMuitNjW0mg07pq-6-ZJ-14" value="End" style="ellipse;whiteSpace=wrap;html=1;" vertex="1" parent="1">
          <mxGeometry x="140" y="420" width="80" height="80" as="geometry" />
        </mxCell>
        <mxCell id="qMuitNjW0mg07pq-6-ZJ-19" value="" style="edgeStyle=orthogonalEdgeStyle;rounded=0;orthogonalLoop=1;jettySize=auto;html=1;" edge="1" parent="1" source="qMuitNjW0mg07pq-6-ZJ-16" target="qMuitNjW0mg07pq-6-ZJ-18">
          <mxGeometry relative="1" as="geometry" />
        </mxCell>
        <mxCell id="qMuitNjW0mg07pq-6-ZJ-40" value="Yes" style="edgeLabel;html=1;align=center;verticalAlign=middle;resizable=0;points=[];" vertex="1" connectable="0" parent="qMuitNjW0mg07pq-6-ZJ-19">
          <mxGeometry x="-0.1667" y="1" relative="1" as="geometry">
            <mxPoint as="offset" />
          </mxGeometry>
        </mxCell>
        <mxCell id="qMuitNjW0mg07pq-6-ZJ-23" value="" style="edgeStyle=orthogonalEdgeStyle;rounded=0;orthogonalLoop=1;jettySize=auto;html=1;" edge="1" parent="1" source="qMuitNjW0mg07pq-6-ZJ-16" target="qMuitNjW0mg07pq-6-ZJ-22">
          <mxGeometry relative="1" as="geometry" />
        </mxCell>
        <mxCell id="qMuitNjW0mg07pq-6-ZJ-41" value="No" style="edgeLabel;html=1;align=center;verticalAlign=middle;resizable=0;points=[];" vertex="1" connectable="0" parent="qMuitNjW0mg07pq-6-ZJ-23">
          <mxGeometry x="-0.0963" y="-2" relative="1" as="geometry">
            <mxPoint as="offset" />
          </mxGeometry>
        </mxCell>
        <mxCell id="qMuitNjW0mg07pq-6-ZJ-16" value="Is user the owner of the NFT?" style="rhombus;whiteSpace=wrap;html=1;" vertex="1" parent="1">
          <mxGeometry x="500" y="580" width="80" height="80" as="geometry" />
        </mxCell>
        <mxCell id="qMuitNjW0mg07pq-6-ZJ-21" value="" style="edgeStyle=orthogonalEdgeStyle;rounded=0;orthogonalLoop=1;jettySize=auto;html=1;" edge="1" parent="1" source="qMuitNjW0mg07pq-6-ZJ-18" target="qMuitNjW0mg07pq-6-ZJ-20">
          <mxGeometry relative="1" as="geometry" />
        </mxCell>
        <mxCell id="qMuitNjW0mg07pq-6-ZJ-18" value="Error: Cannot buy your own NFT" style="whiteSpace=wrap;html=1;" vertex="1" parent="1">
          <mxGeometry x="285" y="590" width="120" height="60" as="geometry" />
        </mxCell>
        <mxCell id="qMuitNjW0mg07pq-6-ZJ-20" value="End" style="ellipse;whiteSpace=wrap;html=1;" vertex="1" parent="1">
          <mxGeometry x="140" y="580" width="80" height="80" as="geometry" />
        </mxCell>
        <mxCell id="qMuitNjW0mg07pq-6-ZJ-25" value="" style="edgeStyle=orthogonalEdgeStyle;rounded=0;orthogonalLoop=1;jettySize=auto;html=1;" edge="1" parent="1" source="qMuitNjW0mg07pq-6-ZJ-22" target="qMuitNjW0mg07pq-6-ZJ-24">
          <mxGeometry relative="1" as="geometry" />
        </mxCell>
        <mxCell id="qMuitNjW0mg07pq-6-ZJ-22" value="Transfer funds to seller" style="whiteSpace=wrap;html=1;" vertex="1" parent="1">
          <mxGeometry x="480" y="720" width="120" height="60" as="geometry" />
        </mxCell>
        <mxCell id="qMuitNjW0mg07pq-6-ZJ-27" value="" style="edgeStyle=orthogonalEdgeStyle;rounded=0;orthogonalLoop=1;jettySize=auto;html=1;" edge="1" parent="1" source="qMuitNjW0mg07pq-6-ZJ-24" target="qMuitNjW0mg07pq-6-ZJ-26">
          <mxGeometry relative="1" as="geometry" />
        </mxCell>
        <mxCell id="qMuitNjW0mg07pq-6-ZJ-24" value="Transfer ownership to user" style="whiteSpace=wrap;html=1;" vertex="1" parent="1">
          <mxGeometry x="480" y="810" width="120" height="60" as="geometry" />
        </mxCell>
        <mxCell id="qMuitNjW0mg07pq-6-ZJ-29" value="" style="edgeStyle=orthogonalEdgeStyle;rounded=0;orthogonalLoop=1;jettySize=auto;html=1;" edge="1" parent="1" target="qMuitNjW0mg07pq-6-ZJ-28">
          <mxGeometry relative="1" as="geometry">
            <mxPoint x="540" y="930" as="sourcePoint" />
          </mxGeometry>
        </mxCell>
        <mxCell id="qMuitNjW0mg07pq-6-ZJ-26" value="Remove NFT from seller&#39;s owned list" style="whiteSpace=wrap;html=1;" vertex="1" parent="1">
          <mxGeometry x="480" y="900" width="120" height="60" as="geometry" />
        </mxCell>
        <mxCell id="qMuitNjW0mg07pq-6-ZJ-31" value="" style="edgeStyle=orthogonalEdgeStyle;rounded=0;orthogonalLoop=1;jettySize=auto;html=1;" edge="1" parent="1" source="qMuitNjW0mg07pq-6-ZJ-28" target="qMuitNjW0mg07pq-6-ZJ-30">
          <mxGeometry relative="1" as="geometry" />
        </mxCell>
        <mxCell id="qMuitNjW0mg07pq-6-ZJ-28" value="Add NFT to user&#39;s owned list" style="whiteSpace=wrap;html=1;" vertex="1" parent="1">
          <mxGeometry x="480" y="990" width="120" height="60" as="geometry" />
        </mxCell>
        <mxCell id="qMuitNjW0mg07pq-6-ZJ-33" value="" style="edgeStyle=orthogonalEdgeStyle;rounded=0;orthogonalLoop=1;jettySize=auto;html=1;" edge="1" parent="1" source="qMuitNjW0mg07pq-6-ZJ-30" target="qMuitNjW0mg07pq-6-ZJ-32">
          <mxGeometry relative="1" as="geometry" />
        </mxCell>
        <mxCell id="qMuitNjW0mg07pq-6-ZJ-30" value="Mark NFT as Not for sale" style="whiteSpace=wrap;html=1;" vertex="1" parent="1">
          <mxGeometry x="480" y="1080" width="120" height="60" as="geometry" />
        </mxCell>
        <mxCell id="qMuitNjW0mg07pq-6-ZJ-35" value="" style="edgeStyle=orthogonalEdgeStyle;rounded=0;orthogonalLoop=1;jettySize=auto;html=1;" edge="1" parent="1" source="qMuitNjW0mg07pq-6-ZJ-32" target="qMuitNjW0mg07pq-6-ZJ-34">
          <mxGeometry relative="1" as="geometry" />
        </mxCell>
        <mxCell id="qMuitNjW0mg07pq-6-ZJ-32" value="Emit NFTBought Event" style="whiteSpace=wrap;html=1;" vertex="1" parent="1">
          <mxGeometry x="480" y="1170" width="120" height="60" as="geometry" />
        </mxCell>
        <mxCell id="qMuitNjW0mg07pq-6-ZJ-34" value="End" style="ellipse;whiteSpace=wrap;html=1;" vertex="1" parent="1">
          <mxGeometry x="500" y="1260" width="80" height="80" as="geometry" />
        </mxCell>
      </root>
    </mxGraphModel>
  </diagram>
</mxfile>
